<svg id="whiteback" xmlns="http://www.w3.org/2000/svg" viewBox="0 0 1276 248"><defs><style>.cls-1{fill:#f57;}.cls-2,.cls-3{fill:#808088;}.cls-2{opacity:0.4;}</style></defs><title>アートボード 3</title><path class="cls-1" d="M202.33,53.64c-16.66-13.4-41.11-10.48-54.56,6.13L129.54,82.28a9.21,9.21,0,0,0,7.16,15H190a15.66,15.66,0,0,1,15.31,12.4l.32,1.51,2.48-3.07A38.68,38.68,0,0,0,202.33,53.64Z"/><path class="cls-2" d="M97.24,157.51c16.66,13.4,41.11,10.48,54.56-6.13L170,128.87a9.21,9.21,0,0,0-7.16-15H109.54a15.66,15.66,0,0,1-15.31-12.4L93.9,100,91.42,103A38.68,38.68,0,0,0,97.24,157.51Z"/><path class="cls-3" d="M481.94,84.19V137.1c0,16.6,12.26,28.85,33.93,28.85,20.41,0,33.72-11.14,33.72-29.31V84.19H537.75v49.08c0,17.23-7.37,22.79-20.75,22.79-14,0-19.54-7.12-19.54-23.14V84.18Z"/><rect class="cls-3" x="765.01" y="104.89" width="14.72" height="59.8"/><circle class="cls-3" cx="772.37" cy="89.25" r="8.74"/><path class="cls-3" d="M936.22,103.62c-18,0-28.58,12.76-28.58,31v.58c0,19,12,30.7,30.56,30.7a42,42,0,0,0,22-5.88V149.84c-6.89,5.12-13.81,7.6-21.79,7.6-8.59,0-14.9-5.93-14.9-19.42h40.24C963.76,116.62,955.64,103.62,936.22,103.62Zm-12.54,25.89c.47-10.48,3.75-17.38,12.54-17.38,8.36,0,11.41,7.63,11.67,17.38Z"/><path class="cls-3" d="M1117.17,103.62c-18,0-28.58,12.76-28.58,31v.58c0,19,12,30.7,30.56,30.7a42,42,0,0,0,22-5.88V149.84c-6.89,5.12-13.81,7.6-21.79,7.6-8.59,0-14.9-5.93-14.9-19.42h40.24C1144.71,116.62,1136.59,103.62,1117.17,103.62Zm-12.54,25.89c.47-10.48,3.75-17.38,12.54-17.38,8.36,0,11.41,7.63,11.67,17.38Z"/><path class="cls-3" d="M881.53,148.51V113.4h17.34v-8.51H881.53V87.18H866.81v17.71h-8v8.51h8v36c0,9.69,8,16.53,19.73,16.53,5.33,0,9.23-1,12.47-3.15v-7.46a25.12,25.12,0,0,1-9.18,1.63C884.88,157,881.53,153.65,881.53,148.51Z"/><path class="cls-3" d="M264,103.36c0-6.58,4.52-10.43,13.32-10.43,9.59,0,15.9,2.67,23.75,7.8v-13A61.63,61.63,0,0,0,277.31,83c-17.52,0-30,8.63-30,21.62,0,26.61,40.85,22.31,40.85,40.19,0,7.1-5.21,11.1-12.71,11.1-11.06,0-20.93-5.53-28-11.39v13.35c8,5.74,18.26,7.93,29,7.93,17.21,0,28.31-9,28.31-22.48C304.86,114.92,264,120.52,264,103.36Z"/><path class="cls-3" d="M634.07,107.87c0-17.53-14.71-23.68-28.9-23.68H569.3v80.5h15.52V132.6h14.81L618,164.69h17.88l-19.36-33.95C625.11,128.41,634.07,121.35,634.07,107.87ZM584.83,94.14H600c10.39,0,17.36,4.71,17.36,14.46,0,10.4-8.29,14-17.36,14H584.83Z"/><polygon class="cls-3" points="450.8 164.69 470.2 164.69 436.6 119.89 468.28 84.19 455.06 84.19 415.64 128.61 415.64 84.19 400.11 84.19 400.11 164.69 415.64 164.69 415.64 143.51 426.08 131.74 450.8 164.69"/><path class="cls-3" d="M372.43,164.69h16.65L357.63,83.61H341.85L310.4,164.69h12.7l8.27-21.31h32.78Zm-37.21-31.2,12.56-32.37,12.56,32.37Z"/><path class="cls-3" d="M830.28,103.62c-7.93,0-16,5.3-19.55,10.12v-8.85H796v59.79h14.72V122.8c3.3-6.14,8.8-9.14,13.43-9.14a8.68,8.68,0,0,1,8.82,8.72v42.31H847.7V119.1C847.7,111.8,842.61,103.62,830.28,103.62Z"/><path class="cls-3" d="M1058.62,103.62c-7.93,0-16,5.3-19.55,10.12v-8.85h-14.72v59.79h14.72V122.8c3.3-6.14,8.8-9.14,13.43-9.14a8.68,8.68,0,0,1,8.82,8.72v42.31H1076V119.1C1076,111.8,1071,103.62,1058.62,103.62Z"/><path class="cls-3" d="M991.76,115.45V104.89H977v59.8h14.72V124.56c6.08-6.61,13.16-9.09,22.22-9.09V104.31A27.38,27.38,0,0,0,991.76,115.45Z"/><path class="cls-3" d="M705.91,164.69h16.65L691.11,83.61H675.33l-31.45,81.07h12.7l8.27-21.31h32.78Zm-37.21-31.2,12.56-32.37,12.56,32.37Z"/><path class="cls-3" d="M1175.8,148.51V113.4h17.34v-8.51H1175.8V87.18h-14.72v17.71h-8v8.51h8v36c0,9.69,8,16.53,19.73,16.53,5.33,0,9.23-1,12.47-3.15v-7.46a25.12,25.12,0,0,1-9.18,1.63C1179.14,157,1175.8,153.65,1175.8,148.51Z"/></svg>